<svg version="1.1" id="Слой_1" xmlns="http://www.w3.org/2000/svg" xmlns:xlink="http://www.w3.org/1999/xlink" x="0px" y="0px"
	 viewBox="0 0 22 22" enable-background="new 0 0 22 22" xml:space="preserve">
<g>
	<path d="M11,20.1c-0.5,0-0.8-0.4-0.8-0.8c0-0.5-0.2-1-0.6-1.4c-0.4-0.4-0.9-0.6-1.4-0.6H1.8C1.4,17.3,1,17,1,16.5V2.8
		c0-0.5,0.4-0.8,0.8-0.8h5.5c1.2,0,2.3,0.5,3.2,1.3c0.9,0.9,1.3,2,1.3,3.2v12.8C11.8,19.7,11.5,20.1,11,20.1z M2.7,15.7h5.6
		c0.7,0,1.3,0.2,1.9,0.6V6.4c0-0.8-0.3-1.5-0.8-2c-0.5-0.5-1.2-0.8-2-0.8H2.7V15.7z"/>
</g>
<g>
	<path d="M11,20.1c-0.5,0-0.8-0.4-0.8-0.8V6.4c0-1.2,0.5-2.3,1.3-3.2c0.9-0.8,2-1.3,3.2-1.3l0,0h5.5c0.5,0,0.8,0.4,0.8,0.8v13.8
		c0,0.5-0.4,0.8-0.8,0.8h-6.4c-0.5,0-1,0.2-1.4,0.6c-0.4,0.4-0.6,0.8-0.6,1.4C11.8,19.7,11.5,20.1,11,20.1z M14.7,3.6
		c-0.8,0-1.5,0.3-2,0.8s-0.8,1.2-0.8,2v9.8c0.6-0.4,1.2-0.6,1.9-0.6h5.6V3.6H14.7z"/>
</g>
</svg>
