<?xml version="1.0" encoding="utf-8"?>
<!-- Generator: Adobe Illustrator 17.1.0, SVG Export Plug-In . SVG Version: 6.00 Build 0)  -->
<!DOCTYPE svg PUBLIC "-//W3C//DTD SVG 1.1//EN" "http://www.w3.org/Graphics/SVG/1.1/DTD/svg11.dtd">
<svg version="1.1" id="Слой_1" xmlns="http://www.w3.org/2000/svg" xmlns:xlink="http://www.w3.org/1999/xlink" x="0px" y="0px"
	 viewBox="0 0 22 22" enable-background="new 0 0 22 22" xml:space="preserve">
<g>
	<path d="M11,21C5.5,21,1,16.5,1,11C1,5.5,5.5,1,11,1s10,4.5,10,10C21,16.5,16.5,21,11,21z M11,2.7c-4.6,0-8.3,3.7-8.3,8.3
		s3.7,8.3,8.3,8.3s8.3-3.7,8.3-8.3S15.6,2.7,11,2.7z"/>
</g>
<g>
	<path d="M20.2,11.8H1.8C1.4,11.8,1,11.5,1,11s0.4-0.8,0.8-0.8h18.3c0.5,0,0.8,0.4,0.8,0.8S20.6,11.8,20.2,11.8z"/>
</g>
<g>
	<path d="M11,21c-0.2,0-0.5-0.1-0.6-0.3C8,18.1,6.6,14.6,6.5,11C6.6,7.4,8,3.9,10.4,1.3C10.5,1.1,10.8,1,11,1h0
		c0.2,0,0.5,0.1,0.6,0.3c2.4,2.6,3.8,6.1,3.9,9.7c-0.1,3.6-1.5,7.1-3.9,9.7C11.5,20.9,11.2,21,11,21z M11,3.1
		c-1.8,2.2-2.8,5-2.8,7.9c0.1,2.8,1.1,5.6,2.8,7.9c1.8-2.2,2.8-5,2.8-7.9C13.8,8.1,12.8,5.4,11,3.1z"/>
</g>
</svg>
