<?xml version="1.0" encoding="utf-8"?>
<!-- Generator: Adobe Illustrator 17.1.0, SVG Export Plug-In . SVG Version: 6.00 Build 0)  -->
<!DOCTYPE svg PUBLIC "-//W3C//DTD SVG 1.1//EN" "http://www.w3.org/Graphics/SVG/1.1/DTD/svg11.dtd">
<svg version="1.1" id="Слой_1" xmlns="http://www.w3.org/2000/svg" xmlns:xlink="http://www.w3.org/1999/xlink" x="0px" y="0px"
	 viewBox="0 0 22 22" enable-background="new 0 0 22 22" xml:space="preserve">
<g>
	<path d="M18.3,21.1c-0.1,0-0.2,0-0.3,0c-3-0.3-5.9-1.4-8.4-3c-2.3-1.5-4.3-3.5-5.8-5.8c-1.6-2.5-2.6-5.4-3-8.4
		C0.9,3.2,1.1,2.4,1.6,1.9s1.2-0.9,1.9-1c0.1,0,0.2,0,0.3,0h2.8c1.4,0,2.6,1,2.8,2.4c0.1,0.8,0.3,1.6,0.6,2.4c0.4,1,0.1,2.2-0.6,3
		L8.7,9.2c1.1,1.6,2.4,3,4.1,4.1l0.6-0.6c0.8-0.8,2-1,3-0.6c0.8,0.3,1.6,0.5,2.4,0.6c1.4,0.2,2.5,1.4,2.4,2.9v2.7
		c0,0.8-0.3,1.5-0.8,2C19.8,20.8,19.1,21.1,18.3,21.1z M6.5,2.8C6.5,2.8,6.5,2.8,6.5,2.8H3.8c-0.5,0-0.9,0.5-0.8,0.9
		C3.2,6.4,4.1,9,5.6,11.2c1.3,2.1,3.1,3.9,5.2,5.2c2.2,1.5,4.8,2.4,7.5,2.7l0,0c0.3,0,0.5-0.1,0.6-0.2c0.2-0.2,0.2-0.4,0.2-0.6v-2.8
		c0,0,0,0,0,0c0-0.4-0.3-0.8-0.7-0.8c-0.9-0.1-1.9-0.4-2.8-0.7c-0.3-0.1-0.7,0-0.9,0.2l-1.2,1.2c-0.3,0.3-0.8,0.4-1.2,0.2
		C10,14.1,7.9,12,6.5,9.6C6.3,9.2,6.4,8.7,6.7,8.4l1.2-1.2C8.1,7,8.2,6.6,8.1,6.3C7.7,5.4,7.5,4.5,7.4,3.5C7.3,3.1,6.9,2.8,6.5,2.8z
		 M17.4,9.2c-0.5,0-0.9-0.3-1-0.8C16.2,7,15,5.8,13.6,5.6c-0.5-0.1-0.9-0.6-0.8-1.2c0.1-0.5,0.6-0.9,1.2-0.8C16.2,4,18,5.8,18.4,8
		c0.1,0.5-0.2,1.1-0.8,1.2C17.5,9.2,17.5,9.2,17.4,9.2z M21.1,9.2c-0.5,0-0.9-0.4-1-0.9c-0.4-3.4-3-6-6.4-6.4
		c-0.5-0.1-0.9-0.6-0.9-1.1s0.6-0.9,1.1-0.9c4.3,0.5,7.7,3.8,8.2,8.2c0.1,0.5-0.3,1-0.9,1.1C21.2,9.2,21.1,9.2,21.1,9.2z"/>
</g>
</svg>
