<?xml version="1.0" encoding="utf-8"?>
<!-- Generator: Adobe Illustrator 17.1.0, SVG Export Plug-In . SVG Version: 6.00 Build 0)  -->
<!DOCTYPE svg PUBLIC "-//W3C//DTD SVG 1.1//EN" "http://www.w3.org/Graphics/SVG/1.1/DTD/svg11.dtd">
<svg version="1.1" id="Слой_1" xmlns="http://www.w3.org/2000/svg" xmlns:xlink="http://www.w3.org/1999/xlink" x="0px" y="0px"
	 viewBox="-0.3 -0.3 29.5 29.6" enable-background="new -0.3 -0.3 29.5 29.6" xml:space="preserve">
<g>
	<path d="M22.5,29c-0.3,0-0.5-0.1-0.7-0.2l-7.3-4l-7.3,4c-0.5,0.3-1.2,0.2-1.7-0.1c-0.5-0.4-0.7-1-0.6-1.6l1.4-8.4h0l-5.9-6
		C0,12.2-0.1,11.6,0.1,11c0.2-0.6,0.7-1,1.3-1.1l8.1-1.2l3.6-7.7C13.4,0.4,13.9,0,14.5,0c0.6,0,1.1,0.4,1.4,0.9l3.6,7.7l8.1,1.2
		c0.6,0.1,1.1,0.5,1.3,1.1c0.2,0.6,0,1.2-0.4,1.7l-5.9,6l1.4,8.4c0.1,0.6-0.1,1.2-0.6,1.6C23.1,28.9,22.8,29,22.5,29z M2.4,11.7
		l6.1,6.2l-1.4,8.7l7.4-4.1l7.4,4.1l-1.4-8.7l6.1-6.2l-8.5-1.3l-3.7-7.8l-3.7,7.8L2.4,11.7z"/>
</g>
</svg>
