<?xml version="1.0" encoding="utf-8"?>
<!-- Generator: Adobe Illustrator 17.1.0, SVG Export Plug-In . SVG Version: 6.00 Build 0)  -->
<!DOCTYPE svg PUBLIC "-//W3C//DTD SVG 1.1//EN" "http://www.w3.org/Graphics/SVG/1.1/DTD/svg11.dtd">
<svg version="1.1" id="Слой_1" xmlns="http://www.w3.org/2000/svg" xmlns:xlink="http://www.w3.org/1999/xlink" x="0px" y="0px"
	 viewBox="0 0 22 22" enable-background="new 0 0 22 22" xml:space="preserve">
<g>
	<path d="M11.9,19.2c-0.5,0-0.8-0.4-0.8-0.8c0-2-0.8-3.8-2.2-5.2c-1.4-1.4-3.3-2.2-5.2-2.2c-0.5,0-0.8-0.4-0.8-0.8s0.4-0.8,0.8-0.8
		c2.4,0,4.7,0.9,6.4,2.7c1.7,1.7,2.7,4,2.7,6.4C12.8,18.8,12.4,19.2,11.9,19.2z"/>
</g>
<g>
	<path d="M18.3,19.2c-0.5,0-0.8-0.4-0.8-0.8c0-3.7-1.4-7.2-4.1-9.8c-2.6-2.6-6.1-4.1-9.8-4.1c-0.5,0-0.8-0.4-0.8-0.8
		s0.4-0.8,0.8-0.8c4.1,0,8,1.6,11,4.5c2.9,2.9,4.5,6.8,4.5,11C19.2,18.8,18.8,19.2,18.3,19.2z"/>
</g>
<g>
	<circle cx="4.6" cy="17.4" r="1.7"/>
</g>
</svg>
