<svg width="16" height="16" viewBox="0 0 16 16" fill="none" xmlns="http://www.w3.org/2000/svg">
<path d="M8.00203 5.91687C6.85515 5.91687 5.91921 6.85281 5.91921 7.99968C5.91921 9.14656 6.85515 10.0825 8.00203 10.0825C9.1489 10.0825 10.0848 9.14656 10.0848 7.99968C10.0848 6.85281 9.1489 5.91687 8.00203 5.91687ZM14.2489 7.99968C14.2489 7.13718 14.2567 6.2825 14.2083 5.42156C14.1598 4.42156 13.9317 3.53406 13.2005 2.80281C12.4677 2.07 11.5817 1.84343 10.5817 1.795C9.71921 1.74656 8.86453 1.75437 8.00359 1.75437C7.14109 1.75437 6.2864 1.74656 5.42546 1.795C4.42546 1.84343 3.53796 2.07156 2.80671 2.80281C2.0739 3.53562 1.84734 4.42156 1.7989 5.42156C1.75046 6.28406 1.75828 7.13875 1.75828 7.99968C1.75828 8.86062 1.75046 9.71687 1.7989 10.5778C1.84734 11.5778 2.07546 12.4653 2.80671 13.1966C3.53953 13.9294 4.42546 14.1559 5.42546 14.2044C6.28796 14.2528 7.14265 14.245 8.00359 14.245C8.86609 14.245 9.72078 14.2528 10.5817 14.2044C11.5817 14.1559 12.4692 13.9278 13.2005 13.1966C13.9333 12.4637 14.1598 11.5778 14.2083 10.5778C14.2583 9.71687 14.2489 8.86218 14.2489 7.99968ZM8.00203 11.2044C6.22859 11.2044 4.79734 9.77312 4.79734 7.99968C4.79734 6.22625 6.22859 4.795 8.00203 4.795C9.77547 4.795 11.2067 6.22625 11.2067 7.99968C11.2067 9.77312 9.77547 11.2044 8.00203 11.2044ZM11.338 5.41218C10.9239 5.41218 10.5895 5.07781 10.5895 4.66375C10.5895 4.24968 10.9239 3.91531 11.338 3.91531C11.752 3.91531 12.0864 4.24968 12.0864 4.66375C12.0865 4.76207 12.0673 4.85945 12.0297 4.95031C11.9921 5.04117 11.937 5.12372 11.8675 5.19325C11.7979 5.26277 11.7154 5.31789 11.6245 5.35546C11.5337 5.39303 11.4363 5.41231 11.338 5.41218Z" fill="black"/>
</svg>
